<?xml version="1.0" encoding="UTF-8"?>
<svg xmlns="http://www.w3.org/2000/svg" version="1.1" viewBox="0 0 543.5 148.9">
  <defs>
    <style>
      .cls-1 {
        fill: #fff;
      }

      .cls-2 {
        fill: #f17f01;
      }

      .cls-3 {
        fill: #f17e00;
      }
    </style>
  </defs>
  <!-- Generator: Adobe Illustrator 28.6.0, SVG Export Plug-In . SVG Version: 1.2.0 Build 709)  -->
  <g>
    <g id="katman_1">
      <g id="AI_x5F_Image_xA0_Görüntü">
        <g>
          <path class="cls-2" d="M62.2,70.2h-24.9L79.4,6.2c5.4-8.4,17.7-8.3,23,0l41.3,63.9h-73.4l10-16.6h27.9l-16.6-26.7-29.4,43.3h0Z"/>
          <polygon class="cls-2" points="132.6 0 132.6 42.7 149.8 70.2 183.1 70.2 195.2 53.7 152.1 53.7 152.1 0 132.6 0"/>
          <path class="cls-2" d="M189.4,0v48.9h6c3.9,0,6.2,4.5,3.9,7.7l-10.7,13.6h57.3l12.2-17.1h-49.1L208.2,0h-18.8Z"/>
          <path d="M341.3,18.8L354.2,0h-43C303.3,0,295.4,1.6,288.4,5.3c-7,3.7-16.7,13-17.4,27.1-1.5,27.8,18,37.8,35,37.8h35.2l12-17.1h-46.1s-17.2-1.7-17.7-16.8,16.2-17.5,16.2-17.5h35.7,0Z"/>
          <path d="M347.7,70.2L391.2,5.5c4.8-7.1,15.3-7.1,20,0l42.4,64.6h-74.1l11.5-16.6h26.7l-17.1-25.8-28.7,42.4h-24.3.1Z"/>
          <path d="M510.3,18.6h-62.1L461.6,0h43.8s29.7.7,31,25.2c1.3,24.5-15.4,24.9-15.4,24.9l22.5,20.1h-28.6l-18.6-16.6h-27.6l-.6,16.6h-8.6l-11.3-16.6v-17.6l62.1-.5,2.5-1.1c5.3-2.4,6-9.7,1.3-13.1l-3.8-2.7h0Z"/>
          <polygon class="cls-3" points="0 148.9 32.2 89.8 336.3 89.8 336.3 96.7 40 96.7 11.3 148.9 0 148.9"/>
          <polygon points="11.3 148.9 336.3 148.9 336.3 96.7 40 96.7 11.3 148.9"/>
          <g>
            <path class="cls-1" d="M44.3,139.7v-30.9h14.8c4.6,0,7.9.7,9.9,2.1s3,3.7,3,6.8-.4,3.5-1.2,4.7c-.8,1.2-2.1,2.2-3.8,3,1.7.4,3,1.1,3.8,2.2.8,1.1,1.2,2.6,1.3,4.7l.2,4.3h0c0,1.3.3,2,.9,2v1.2h-10c-.2-.7-.3-1.4-.4-1.9,0-.6,0-1,0-1.3v-3.1c0-1.6-.3-2.7-.9-3.4s-1.7-1-3.3-1h-4.2v10.7h-10ZM54.1,122h4.5c1.6,0,2.7-.2,3.3-.6s.9-1.2.9-2.2-.3-1.9-.9-2.3c-.6-.4-1.8-.6-3.5-.6h-4.3v5.8h0Z"/>
            <path class="cls-1" d="M77.1,139.7v-30.9h24.7v7.4h-14.8v4.1h12.5v7.1h-12.5v4.8h15.4v7.5h-25.3Z"/>
            <path class="cls-1" d="M107.1,139.7v-30.9h9.4l8.7,14.4c.3.4.5,1,.9,1.7.3.7.6,1.6,1,2.7,0-.5,0-1.1-.2-1.8s0-1.5,0-2.4v-14.6h9.5v30.9h-9.5l-8.7-14.3c-.3-.4-.6-1-.9-1.8s-.6-1.7-1-2.6c0,.5.2,1.1.2,1.7v17h-9.4,0Z"/>
            <path class="cls-1" d="M148.6,139.7v-22.8h-8.9v-8.1h27.7v8.1h-8.9v22.8h-9.9Z"/>
            <path class="cls-1" d="M181.8,139.7l10.9-30.9h10.1l10.9,30.9h-9.8l-1.2-4.1h-9.8l-1.2,4.1h-9.9ZM194.5,129.1h6.2l-3.1-10.7-3.1,10.7h0Z"/>
            <path class="cls-1" d="M250.6,127.7h9.4c-.3,4.1-1.7,7.2-4.3,9.5-2.6,2.2-6.1,3.4-10.5,3.4s-8.9-1.5-11.7-4.4-4.3-6.9-4.3-11.9,1.4-9,4.2-11.9,6.6-4.4,11.5-4.4,8,1.1,10.6,3.2c2.6,2.2,4,5.3,4.3,9.3h-9.5c-.1-1.6-.7-2.8-1.5-3.6-.9-.8-2.1-1.2-3.7-1.2s-3.4.7-4.4,2.1-1.5,3.6-1.5,6.4.5,4.9,1.6,6.4c1,1.4,2.6,2.2,4.6,2.2s2.8-.4,3.7-1.3c.9-.9,1.4-2.1,1.6-3.8h-.1Z"/>
            <path class="cls-1" d="M261.2,139.7l10.9-30.9h10.1l10.9,30.9h-9.8l-1.2-4.1h-9.8l-1.2,4.1h-9.9ZM273.9,129.1h6.2l-3.1-10.7-3.1,10.7Z"/>
            <path class="cls-1" d="M295.8,139.7v-30.9h14.8c4.6,0,7.9.7,9.9,2.1s3,3.7,3,6.8-.4,3.5-1.2,4.7c-.8,1.2-2.1,2.2-3.8,3,1.7.4,3,1.1,3.8,2.2.8,1.1,1.2,2.6,1.3,4.7l.2,4.3h0c0,1.3.3,2,.9,2v1.2h-10c-.2-.7-.3-1.4-.4-1.9,0-.6-.1-1-.1-1.3v-3.1c0-1.6-.3-2.7-.9-3.4s-1.7-1-3.3-1h-4.2v10.7h-10ZM305.6,122h4.5c1.6,0,2.7-.2,3.3-.6.6-.4.9-1.2.9-2.2s-.3-1.9-.9-2.3-1.8-.6-3.5-.6h-4.3v5.8h0Z"/>
          </g>
          <rect class="cls-2" x="341.6" y="89.8" width="14.8" height="14.8"/>
          <rect x="341.6" y="112" width="14.8" height="14.8"/>
          <rect x="341.6" y="133.8" width="14.8" height="14.8"/>
          <rect class="cls-2" x="364.7" y="89.8" width="14.8" height="14.8"/>
          <rect x="364.7" y="112" width="14.8" height="14.8"/>
          <rect class="cls-2" x="387.8" y="89.8" width="14.8" height="14.8"/>
        </g>
      </g>
    </g>
  </g>
</svg>